<svg width="19" height="16" viewBox="0 0 19 16" fill="none" xmlns="http://www.w3.org/2000/svg">
<path d="M18.5625 7.94922C18.5625 7.70508 18.4648 7.48047 18.2695 7.29492L11.7949 0.839844C11.5801 0.625 11.375 0.546875 11.1406 0.546875C10.6621 0.546875 10.291 0.898438 10.291 1.38672C10.291 1.62109 10.3691 1.8457 10.5254 2.00195L12.7129 4.22852L15.9941 7.22656L13.6406 7.08008H1.28711C0.779297 7.08008 0.427734 7.44141 0.427734 7.94922C0.427734 8.45703 0.779297 8.81836 1.28711 8.81836H13.6406L16.0039 8.67188L12.7129 11.6699L10.5254 13.8965C10.3691 14.043 10.291 14.2773 10.291 14.5117C10.291 15 10.6621 15.3516 11.1406 15.3516C11.375 15.3516 11.5801 15.2637 11.7754 15.0781L18.2695 8.60352C18.4648 8.41797 18.5625 8.19336 18.5625 7.94922Z" fill="black"/>
</svg>
