<svg viewBox="0 0 60 65" fill="none" xmlns="http://www.w3.org/2000/svg">
<path d="M0.950073 62.6031V2.84415C0.950073 2.09145 1.51255 1.48663 2.21256 1.48663H19.7252C20.6127 1.48663 21.4377 1.98393 21.8878 2.80383L24.2002 6.95711C24.6627 7.77702 25.4753 8.27435 26.3628 8.27435H50.2005C50.9005 8.27435 51.463 8.87921 51.463 9.63191V63.9606H2.20008C1.51258 63.9606 0.950073 63.3558 0.950073 62.6031Z" fill="white"/>
<path d="M51.475 63.9601H5.99963V17.7363C5.99963 15.5051 7.67465 13.704 9.74967 13.704H51.475V63.9601Z" fill="white"/>
<path d="M51.4754 64.9822H2.21251C0.999995 64.9822 0 63.9203 0 62.6031V2.84405C0 1.54027 0.987495 0.464996 2.21251 0.464996H19.7252C20.9377 0.464996 22.0752 1.16394 22.7002 2.27955L25.0127 6.43284C25.3002 6.9436 25.8127 7.25272 26.3627 7.25272H50.2004C51.4254 7.25272 52.4129 8.31459 52.4129 9.63182V63.9606C52.4254 64.5252 52.0004 64.9822 51.4754 64.9822ZM2.21251 2.50803C2.0375 2.50803 1.9 2.65588 1.9 2.84405V62.6031C1.9 62.7913 2.0375 62.9391 2.21251 62.9391H50.5255V9.63182C50.5255 9.44365 50.388 9.29579 50.2129 9.29579H26.3752C25.1627 9.29579 24.0252 8.59685 23.4002 7.48124L21.0877 3.32795C20.8002 2.81719 20.2877 2.50803 19.7377 2.50803H2.21251Z" fill="#116DDC"/>
<path d="M17.3626 9.29639H7.26252C6.73752 9.29639 6.3125 8.83924 6.3125 8.27454C6.3125 7.70984 6.73752 7.25269 7.26252 7.25269H17.3626C17.8876 7.25269 18.3126 7.70984 18.3126 8.27454C18.3126 8.83924 17.8876 9.29639 17.3626 9.29639Z" fill="#116DDC"/>
<path d="M59.0508 27.2938H8.52539V57.1734H59.0508V27.2938Z" fill="white"/>
<path d="M52.7383 27.2938H8.52539V57.1734H52.7383V27.2938Z" fill="white"/>
<path d="M52.7379 27.2938H13.575V57.1734H52.7379V27.2938Z" fill="white"/>
<path d="M57.8008 63.9627H8.52539V57.174H59.0508V62.6184C59.0508 63.3578 58.4883 63.9627 57.8008 63.9627Z" fill="#116DDC" fill-opacity="0.3"/>
<path d="M52.7383 57.174H8.52539V63.9627H52.7383V57.174Z" fill="white"/>
<path d="M52.7379 57.174H13.575V63.9627H52.7379V57.174Z" fill="#DFEBF7"/>
<path d="M59.0508 27.2928H8.52539V17.7764C8.52539 17.0371 9.0879 16.4323 9.7754 16.4323H57.8008C58.4883 16.4323 59.0508 17.0371 59.0508 17.7764V27.2928Z" fill="#116DDC" fill-opacity="0.3"/>
<path d="M47.6882 27.2928H8.52539V17.7764C8.52539 17.0371 9.0879 16.4323 9.7754 16.4323H47.6882V27.2928Z" fill="white"/>
<path d="M52.7379 16.4199H13.575V27.2804H52.7379V16.4199Z" fill="#DFEBF7"/>
<path d="M59.0498 28.3153H8.52436C7.99936 28.3153 7.57434 27.8583 7.57434 27.2938V17.7909C7.57434 16.4871 8.56184 15.4118 9.78685 15.4118H57.7873C58.9998 15.4118 59.9998 16.4737 59.9998 17.7909V27.2938C59.9998 27.8583 59.5748 28.3153 59.0498 28.3153ZM9.47434 26.2723H58.1123V17.7775C58.1123 17.5893 57.9748 17.4414 57.7998 17.4414H9.79936C9.62436 17.4414 9.48686 17.5893 9.48686 17.7775V26.2723H9.47434Z" fill="#116DDC"/>
<path d="M14.25 21.1363C14.1625 21.0422 14.0625 20.975 13.95 20.9212C13.6 20.7598 13.175 20.854 12.9125 21.1363C12.825 21.2304 12.7625 21.338 12.7125 21.459C12.6625 21.58 12.6375 21.7145 12.6375 21.8489C12.6375 21.9834 12.6625 22.1178 12.7125 22.2388C12.7625 22.3598 12.825 22.4674 12.9125 22.5615C13.0875 22.7497 13.325 22.8573 13.5875 22.8573C13.7125 22.8573 13.825 22.8304 13.95 22.7766C14.0625 22.7229 14.1625 22.6556 14.25 22.5615C14.3375 22.4674 14.4 22.3598 14.45 22.2388C14.5 22.1178 14.525 21.9834 14.525 21.8489C14.525 21.7145 14.5 21.58 14.45 21.459C14.4 21.338 14.3375 21.2304 14.25 21.1363Z" fill="#116DDC"/>
<path d="M19.3008 21.1363C19.0383 20.854 18.6132 20.7598 18.2632 20.9212C18.1507 20.975 18.0507 21.0422 17.9632 21.1363C17.8757 21.2304 17.8007 21.338 17.7632 21.459C17.7132 21.5934 17.6882 21.7145 17.6882 21.8489C17.6882 21.9834 17.7132 22.1178 17.7632 22.2388C17.8007 22.3598 17.8757 22.4674 17.9632 22.5615C18.0507 22.6556 18.1507 22.7229 18.2632 22.7766C18.3882 22.8304 18.5007 22.8573 18.6257 22.8573C18.8757 22.8573 19.1133 22.7497 19.3008 22.5615C19.3883 22.4674 19.4508 22.3598 19.5008 22.2388C19.5508 22.1178 19.5758 21.9834 19.5758 21.8489C19.5758 21.7145 19.5508 21.5934 19.5008 21.459C19.4508 21.338 19.3883 21.2304 19.3008 21.1363Z" fill="#116DDC"/>
<path d="M24.5513 21.4601C24.5013 21.339 24.4388 21.2315 24.3513 21.1374C24.2638 21.0433 24.1638 20.976 24.0513 20.9223C23.8138 20.8147 23.5638 20.8147 23.3138 20.9223C23.2013 20.976 23.1013 21.0433 23.0138 21.1374C22.9263 21.2315 22.8638 21.339 22.8138 21.4601C22.7638 21.5945 22.7388 21.7155 22.7388 21.85C22.7388 21.9844 22.7638 22.1189 22.8138 22.2399C22.8638 22.3609 22.9263 22.4685 23.0138 22.5626C23.1013 22.6567 23.2013 22.7239 23.3138 22.7777C23.4388 22.8315 23.5513 22.8584 23.6763 22.8584C23.8013 22.8584 23.9138 22.8315 24.0388 22.7777C24.1513 22.7374 24.2513 22.6567 24.3388 22.5626C24.4263 22.4685 24.4888 22.3609 24.5388 22.2399C24.5888 22.1189 24.6138 21.9844 24.6138 21.85C24.6388 21.7155 24.6013 21.5811 24.5513 21.4601Z" fill="#116DDC"/>
<path d="M57.7873 64.9826H9.78685C8.56184 64.9826 7.57434 63.9207 7.57434 62.6035V27.2938C7.57434 26.7292 7.99936 26.2723 8.52436 26.2723H59.0498C59.5748 26.2723 59.9998 26.7292 59.9998 27.2938V62.6035C59.9998 63.9207 59.0123 64.9826 57.7873 64.9826ZM9.47434 28.3153V62.6169C9.47434 62.8051 9.61185 62.9529 9.78685 62.9529H57.7873C57.9623 62.9529 58.0998 62.8051 58.0998 62.6169V28.3153H9.47434Z" fill="#116DDC"/>
<path d="M59.0498 58.1951H8.52436C7.99936 58.1951 7.57434 57.738 7.57434 57.1733C7.57434 56.6086 7.99936 56.1514 8.52436 56.1514H59.0498C59.5748 56.1514 59.9998 56.6086 59.9998 57.1733C59.9998 57.738 59.5748 58.1951 59.0498 58.1951Z" fill="#116DDC"/>
<path d="M47.6884 52.7643H35.0509C34.5258 52.7643 34.1008 52.3071 34.1008 51.7424C34.1008 51.1777 34.5258 50.7206 35.0509 50.7206H47.6884C48.2134 50.7206 48.6385 51.1777 48.6385 51.7424C48.6385 52.3071 48.2134 52.7643 47.6884 52.7643Z" fill="#116DDC"/>
<path d="M41.3634 47.321H35.0509C34.5258 47.321 34.1008 46.8639 34.1008 46.2992C34.1008 45.7345 34.5258 45.2773 35.0509 45.2773H41.3634C41.8884 45.2773 42.3134 45.7345 42.3134 46.2992C42.3134 46.8639 41.8884 47.321 41.3634 47.321Z" fill="#116DDC"/>
<path d="M52.7387 47.321H45.1636C44.6386 47.321 44.2136 46.8639 44.2136 46.2992C44.2136 45.7345 44.6386 45.2773 45.1636 45.2773H52.7387C53.2637 45.2773 53.6887 45.7345 53.6887 46.2992C53.6887 46.8639 53.2637 47.321 52.7387 47.321Z" fill="#116DDC"/>
</svg>
