<svg width="24" height="24" viewBox="0 0 24 24" fill="none" xmlns="http://www.w3.org/2000/svg">
<path d="M12 24C5.37257 24 0 18.6274 0 12C0 5.37257 5.37257 0 12 0C18.6274 0 24 5.37257 24 12C24 18.6274 18.6274 24 12 24Z" fill="#222221"/>
<path d="M12.0127 13.1597C12.2729 13.1597 12.5142 13.0391 12.7935 12.7598L18.3159 7.29443C18.0811 7.06592 17.6431 6.95801 17.0146 6.95801H6.79492C6.26172 6.95801 5.88721 7.05957 5.67773 7.26904L11.2319 12.7598C11.5049 13.0327 11.7461 13.1597 12.0127 13.1597ZM5.15088 16.873L9.63867 12.436L5.13818 7.99902C5.04297 8.17676 4.99219 8.48145 4.99219 8.91943V15.9272C4.99219 16.3779 5.04297 16.6953 5.15088 16.873ZM18.8555 16.8667C18.957 16.6826 19.0078 16.3716 19.0078 15.9272V8.91943C19.0078 8.49414 18.957 8.18945 18.8682 8.01807L14.3804 12.436L18.8555 16.8667ZM6.98535 17.895H17.2051C17.7383 17.895 18.1064 17.7935 18.3159 17.5903L13.7393 13.0581L13.3203 13.4834C12.8823 13.9023 12.4697 14.0928 12.0127 14.0928C11.5493 14.0928 11.1367 13.9023 10.7051 13.4834L10.2798 13.0581L5.71582 17.584C5.95703 17.7935 6.37598 17.895 6.98535 17.895Z" fill="white"/>
</svg>
