<svg viewBox="0 0 60 67" fill="none" xmlns="http://www.w3.org/2000/svg">
<path d="M47.6975 12.8197H0.950195V65.117H47.6975V12.8197Z" fill="#B5DAFF"/>
<path d="M41.4086 60.9905H0.950195V12.8197H43.9091V58.2666C43.9091 59.7784 42.7839 60.9905 41.4086 60.9905Z" fill="white"/>
<path d="M46.4347 66.1532H2.21296C0.987702 66.1532 0 65.0773 0 63.7427V12.8208C0 12.2487 0.425091 11.7857 0.950201 11.7857C1.47531 11.7857 1.90039 12.2487 1.90039 12.8208V63.7427C1.90039 63.9333 2.03792 64.0831 2.21296 64.0831H46.4347C46.6097 64.0831 46.7472 63.9333 46.7472 63.7427V44.4716C46.7472 43.8996 47.1723 43.4365 47.6974 43.4365C48.2225 43.4365 48.6476 43.8996 48.6476 44.4716V63.7427C48.6476 65.0773 47.6474 66.1532 46.4347 66.1532Z" fill="#0068DF"/>
<path d="M47.6975 12.8202H0.950195V3.17784C0.950195 2.42878 1.51281 1.81592 2.20046 1.81592H46.4472C47.1348 1.81592 47.6975 2.42878 47.6975 3.17784V12.8202Z" fill="#B5DAFF"/>
<path d="M47.6973 12.8199H4.73828V7.30417C4.73828 6.55512 5.3009 5.94226 5.98854 5.94226H47.6973V12.8199Z" fill="white"/>
<path d="M43.9091 13.8553H0.950201C0.425091 13.8553 0 13.3922 0 12.8202V3.19158C0 1.87053 0.987702 0.781006 2.21296 0.781006H46.4347C47.6599 0.781006 48.6476 1.85692 48.6476 3.19158V8.69367C48.6476 9.26567 48.2225 9.72873 47.6974 9.72873C47.1723 9.72873 46.7472 9.26567 46.7472 8.69367V3.19158C46.7472 3.00092 46.6097 2.85111 46.4347 2.85111H2.21296C2.03792 2.85111 1.90039 3.00092 1.90039 3.19158V11.7988H43.9091C44.4343 11.7988 44.8594 12.2619 44.8594 12.8339C44.8594 13.3922 44.4343 13.8553 43.9091 13.8553Z" fill="#0068DF"/>
<path d="M6.6763 6.5826C6.58879 6.48722 6.48878 6.41911 6.37625 6.3646C6.02618 6.20109 5.60109 6.29645 5.33854 6.5826C5.25102 6.67799 5.1885 6.787 5.13849 6.90964C5.08848 7.03228 5.06348 7.16853 5.06348 7.30479C5.06348 7.44105 5.08848 7.57733 5.13849 7.69996C5.1885 7.8226 5.25102 7.93161 5.33854 8.027C5.51357 8.21776 5.75111 8.32675 6.01367 8.32675C6.13869 8.32675 6.25123 8.2995 6.37625 8.245C6.48878 8.1905 6.58879 8.12238 6.6763 8.027C6.76382 7.93161 6.82634 7.8226 6.87635 7.69996C6.92636 7.57733 6.95136 7.44105 6.95136 7.30479C6.95136 7.16853 6.92636 7.03228 6.87635 6.90964C6.82634 6.80063 6.76382 6.69161 6.6763 6.5826Z" fill="#0068DF"/>
<path d="M11.7271 6.5826C11.4645 6.29645 11.0395 6.20109 10.6894 6.3646C10.5769 6.41911 10.4768 6.48722 10.3893 6.5826C10.3018 6.67799 10.2268 6.787 10.1893 6.90964C10.1393 7.0459 10.1143 7.16853 10.1143 7.30479C10.1143 7.44105 10.1393 7.57733 10.1893 7.69996C10.2268 7.8226 10.3018 7.93161 10.3893 8.027C10.4768 8.12238 10.5769 8.1905 10.6894 8.245C10.8144 8.2995 10.9269 8.32675 11.052 8.32675C11.302 8.32675 11.5396 8.21776 11.7271 8.027C11.8146 7.93161 11.8771 7.8226 11.9271 7.69996C11.9771 7.57733 12.0022 7.44105 12.0022 7.30479C12.0022 7.16853 11.9771 7.0459 11.9271 6.90964C11.8771 6.80063 11.8146 6.69161 11.7271 6.5826Z" fill="#0068DF"/>
<path d="M16.9779 6.92337C16.9279 6.80073 16.8654 6.69173 16.7779 6.59635C16.6903 6.50097 16.5903 6.43283 16.4778 6.37833C16.2402 6.26932 15.9902 6.26932 15.7401 6.37833C15.6276 6.43283 15.5276 6.50097 15.4401 6.59635C15.3526 6.69173 15.2901 6.80073 15.2401 6.92337C15.19 7.05963 15.165 7.18228 15.165 7.31854C15.165 7.4548 15.19 7.59105 15.2401 7.71369C15.2901 7.83632 15.3526 7.94534 15.4401 8.04072C15.5276 8.13611 15.6276 8.20424 15.7401 8.25875C15.8652 8.31325 15.9777 8.3405 16.1027 8.3405C16.2278 8.3405 16.3403 8.31325 16.4653 8.25875C16.5778 8.21787 16.6779 8.13611 16.7654 8.04072C16.8529 7.94534 16.9154 7.83632 16.9654 7.71369C17.0154 7.59105 17.0404 7.4548 17.0404 7.31854C17.0404 7.18228 17.0279 7.046 16.9779 6.92337Z" fill="#0068DF"/>
<path d="M58.325 14.6588L54.8618 10.8863C53.874 9.81037 52.2737 9.81037 51.286 10.8863L49.0605 13.3105L56.0995 20.9782L58.325 18.5539C59.3127 17.4644 59.3127 15.7211 58.325 14.6588Z" fill="#B5DAFF"/>
<path d="M30.093 33.9469L20.501 44.3955L27.5381 52.061L37.1301 41.6124L30.093 33.9469Z" fill="#B5DAFF"/>
<path d="M20.5044 44.4031L16.1035 56.8644L27.5559 52.0706L20.5044 44.4031Z" fill="#B5DAFF"/>
<path d="M49.0529 13.3003L30.0986 33.9471L37.1357 41.6127L56.09 20.9658L49.0529 13.3003Z" fill="#B5DAFF"/>
<path d="M55.7994 11.8939L54.8617 10.8724C53.874 9.79651 52.2737 9.79651 51.286 10.8724L49.0605 13.2967L53.574 18.2133L55.7994 15.789C56.7871 14.7131 56.7871 12.9698 55.7994 11.8939Z" fill="white"/>
<path d="M30.0959 33.9469L20.5039 44.3956L25.0214 49.3165L34.6135 38.8679L30.0959 33.9469Z" fill="white"/>
<path d="M56.0995 22.014C55.862 22.014 55.6119 21.9186 55.4244 21.7144L48.3854 14.0468C48.2104 13.8562 48.1104 13.5974 48.1104 13.3114C48.1104 13.0254 48.2104 12.7803 48.3854 12.576L50.6109 10.1518C51.9611 8.68093 54.1741 8.68093 55.5244 10.1518L58.9876 13.9243C60.3379 15.3951 60.3379 17.8057 58.9876 19.2765L56.7621 21.7007C56.5871 21.905 56.3371 22.014 56.0995 22.014ZM50.3983 13.3114L56.0995 19.5217L57.6623 17.8193C57.9624 17.4924 58.1249 17.0566 58.1249 16.6072C58.1249 16.1442 57.9624 15.722 57.6623 15.3951L54.1991 11.6226C53.5865 10.9553 52.5863 10.9553 51.9611 11.6226L50.3983 13.3114Z" fill="#0068DF"/>
<path d="M20.5044 44.4031L16.3535 56.17L25.0178 49.3196L20.5044 44.4031Z" fill="white"/>
<path d="M49.0548 13.3014L30.1006 33.9483L34.6181 38.8693L53.5723 18.2224L49.0548 13.3014Z" fill="white"/>
<path d="M16.1026 57.8999C15.8526 57.8999 15.615 57.791 15.4275 57.6003C15.1649 57.3143 15.0774 56.8785 15.2149 56.4971L19.6159 44.0357C19.7284 43.7089 19.9909 43.4637 20.3035 43.3956C20.6161 43.3139 20.9411 43.4229 21.1662 43.6816L28.2052 51.3492C28.4302 51.5943 28.5302 51.9484 28.4677 52.2889C28.4052 52.6293 28.1802 52.9153 27.8801 53.0379L16.4402 57.8318C16.3402 57.8727 16.2277 57.8999 16.1026 57.8999ZM20.8661 46.2556L17.753 55.0671L25.8422 51.676L20.8661 46.2556Z" fill="#0068DF"/>
<path d="M37.1454 42.6459C36.9079 42.6459 36.6578 42.5506 36.4703 42.3463L29.4313 34.6787C29.2563 34.4881 29.1562 34.2293 29.1562 33.9433C29.1562 33.6709 29.2563 33.4122 29.4313 33.2079L48.3852 12.5613C48.7603 12.1527 49.3605 12.1527 49.723 12.5613L56.762 20.2288C56.937 20.4195 57.037 20.6919 57.037 20.9643C57.037 21.2367 56.937 21.4954 56.762 21.6997L37.8081 42.3463C37.633 42.5506 37.383 42.6459 37.1454 42.6459ZM31.4442 33.9433L37.1454 40.1536L54.7616 20.9643L49.0604 14.7539L31.4442 33.9433Z" fill="#0068DF"/>
<path d="M27.555 53.1059C27.3049 53.1059 27.0674 52.997 26.8799 52.8063L19.8409 45.1387C19.4658 44.7301 19.4658 44.0764 19.8409 43.6814L29.4304 33.2354C29.8055 32.8269 30.4056 32.8269 30.7682 33.2354L37.8072 40.9031C37.9822 41.0938 38.0822 41.3525 38.0822 41.6385C38.0822 41.9109 37.9822 42.1697 37.8072 42.374L28.2176 52.8199C28.0426 52.997 27.805 53.1059 27.555 53.1059ZM21.8538 44.4032L27.555 50.6136L35.8067 41.6249L30.1055 35.4145L21.8538 44.4032Z" fill="#0068DF"/>
<path d="M44.5092 42.8912C44.2716 42.8912 44.0216 42.7959 43.834 42.5916C43.459 42.183 43.459 41.5293 43.834 41.1343L57.4243 26.3303C58.037 25.6629 58.037 24.5734 57.4243 23.8925L50.9105 16.7969C50.5354 16.3883 50.5354 15.7346 50.9105 15.3396C51.2856 14.9311 51.8857 14.9311 52.2483 15.3396L58.7621 22.4352C60.1124 23.9061 60.1124 26.3167 58.7621 27.7875L45.1718 42.5916C44.9968 42.7823 44.7592 42.8912 44.5092 42.8912Z" fill="#0068DF"/>
<path d="M15.2903 57.9001H7.26367C6.73856 57.9001 6.31348 57.4368 6.31348 56.8645C6.31348 56.2922 6.73856 55.829 7.26367 55.829H15.2903C15.8154 55.829 16.2405 56.2922 16.2405 56.8645C16.2405 57.4368 15.8154 57.9001 15.2903 57.9001Z" fill="#0068DF"/>
<path d="M13.5775 51.0102H7.26367C6.73856 51.0102 6.31348 50.5469 6.31348 49.9746C6.31348 49.4023 6.73856 48.939 7.26367 48.939H13.5775C14.1026 48.939 14.5277 49.4023 14.5277 49.9746C14.5277 50.5469 14.1026 51.0102 13.5775 51.0102Z" fill="#0068DF"/>
<path d="M16.103 44.1306H7.26367C6.73856 44.1306 6.31348 43.6674 6.31348 43.0951C6.31348 42.5228 6.73856 42.0594 7.26367 42.0594H16.103C16.6281 42.0594 17.0532 42.5228 17.0532 43.0951C17.0532 43.6674 16.6281 44.1306 16.103 44.1306Z" fill="#0068DF"/>
<path d="M21.1663 37.2535H16.1152C15.5901 37.2535 15.165 36.7902 15.165 36.2179C15.165 35.6456 15.5901 35.1823 16.1152 35.1823H21.1663C21.6914 35.1823 22.1165 35.6456 22.1165 36.2179C22.104 36.7902 21.6914 37.2535 21.1663 37.2535Z" fill="#0068DF"/>
<path d="M12.3147 37.2535H7.26367C6.73856 37.2535 6.31348 36.7902 6.31348 36.2179C6.31348 35.6456 6.73856 35.1823 7.26367 35.1823H12.3147C12.8398 35.1823 13.2649 35.6456 13.2649 36.2179C13.2649 36.7902 12.8398 37.2535 12.3147 37.2535Z" fill="#0068DF"/>
<path d="M27.4808 30.3762H21.167C20.6419 30.3762 20.2168 29.9129 20.2168 29.3406C20.2168 28.7683 20.6419 28.3051 21.167 28.3051H27.4808C28.0059 28.3051 28.431 28.7683 28.431 29.3406C28.431 29.9129 28.0059 30.3762 27.4808 30.3762Z" fill="#0068DF"/>
<path d="M17.3785 30.3762H7.27638C6.75127 30.3762 6.32617 29.9129 6.32617 29.3406C6.32617 28.7683 6.75127 28.3051 7.27638 28.3051H17.3785C17.9036 28.3051 18.3287 28.7683 18.3287 29.3406C18.3162 29.9129 17.8911 30.3762 17.3785 30.3762Z" fill="#0068DF"/>
<path d="M33.7946 23.4861H18.6289C18.1038 23.4861 17.6787 23.0228 17.6787 22.4505C17.6787 21.8782 18.1038 21.4149 18.6289 21.4149H33.7946C34.3197 21.4149 34.7448 21.8782 34.7448 22.4505C34.7448 23.0228 34.3197 23.4861 33.7946 23.4861Z" fill="#0068DF"/>
<path d="M14.8402 23.4861H7.26367C6.73856 23.4861 6.31348 23.0228 6.31348 22.4505C6.31348 21.8782 6.73856 21.4149 7.26367 21.4149H14.8402C15.3654 21.4149 15.7905 21.8782 15.7905 22.4505C15.7905 23.0228 15.3654 23.4861 14.8402 23.4861Z" fill="#0068DF"/>
</svg>
