<svg viewBox="0 0 60 65" fill="none" xmlns="http://www.w3.org/2000/svg">
<path d="M48.9497 12.2496H0.949707V63.863H48.9497V12.2496Z" fill="#B5DAFF"/>
<path d="M42.6622 59.7902H0.949707V12.2496H45.1622V57.102C45.1622 58.5805 44.0372 59.7902 42.6622 59.7902Z" fill="white"/>
<path d="M47.6875 64.8847H2.2125C0.987501 64.8847 0 63.8229 0 62.5057V12.25C0 11.6854 0.425001 11.2285 0.950001 11.2285H48.95C49.475 11.2285 49.9 11.6854 49.9 12.25V62.5057C49.9 63.8229 48.9 64.8847 47.6875 64.8847ZM1.9 13.2715V62.5057C1.9 62.6939 2.0375 62.8417 2.2125 62.8417H47.6875C47.8625 62.8417 48 62.6939 48 62.5057V13.2715H1.9Z" fill="#0068DF"/>
<path d="M48.9497 12.2494H0.949707V2.73331C0.949707 1.99406 1.51221 1.38922 2.19971 1.38922H47.6997C48.3872 1.38922 48.9497 1.99406 48.9497 2.73331V12.2494Z" fill="#B5DAFF"/>
<path d="M48.9501 12.2498H4.73755V6.80625C4.73755 6.067 5.30005 5.46216 5.98755 5.46216H48.9501V12.2498Z" fill="white"/>
<path d="M48.95 13.2712H0.950001C0.425001 13.2712 0 12.8142 0 12.2497V2.74701C0 1.42981 0.987501 0.367981 2.2125 0.367981H47.6875C48.9 0.367981 49.9 1.42981 49.9 2.74701V12.2497C49.9 12.8142 49.475 13.2712 48.95 13.2712ZM1.9 11.2282H48V2.73358C48 2.54541 47.8625 2.39756 47.6875 2.39756H2.2125C2.0375 2.39756 1.9 2.54541 1.9 2.73358V11.2282Z" fill="#0068DF"/>
<path d="M6.67476 6.09327C6.58726 5.99915 6.48726 5.93194 6.37476 5.87816C6.02476 5.71682 5.59976 5.81092 5.33726 6.09327C5.24976 6.18738 5.18726 6.29495 5.13726 6.41596C5.08726 6.53696 5.06226 6.6714 5.06226 6.80586C5.06226 6.94031 5.08726 7.07477 5.13726 7.19578C5.18726 7.31678 5.24976 7.42435 5.33726 7.51847C5.51226 7.7067 5.74976 7.81424 6.01226 7.81424C6.13726 7.81424 6.24976 7.78735 6.37476 7.73357C6.48726 7.67979 6.58726 7.61258 6.67476 7.51847C6.76226 7.42435 6.82476 7.31678 6.87476 7.19578C6.92476 7.07477 6.94976 6.94031 6.94976 6.80586C6.94976 6.6714 6.92476 6.53696 6.87476 6.41596C6.82476 6.30839 6.76226 6.20083 6.67476 6.09327Z" fill="#0068DF"/>
<path d="M11.7248 6.09327C11.4623 5.81092 11.0373 5.71682 10.6873 5.87816C10.5748 5.93194 10.4748 5.99915 10.3873 6.09327C10.2998 6.18738 10.2248 6.29495 10.1873 6.41596C10.1373 6.55041 10.1123 6.6714 10.1123 6.80586C10.1123 6.94031 10.1373 7.07477 10.1873 7.19578C10.2248 7.31678 10.2998 7.42435 10.3873 7.51847C10.4748 7.61258 10.5748 7.67979 10.6873 7.73357C10.8123 7.78735 10.9248 7.81424 11.0498 7.81424C11.2998 7.81424 11.5373 7.7067 11.7248 7.51847C11.8123 7.42435 11.8748 7.31678 11.9248 7.19578C11.9748 7.07477 11.9998 6.94031 11.9998 6.80586C11.9998 6.6714 11.9748 6.55041 11.9248 6.41596C11.8748 6.30839 11.8123 6.20083 11.7248 6.09327Z" fill="#0068DF"/>
<path d="M16.9749 6.42975C16.9249 6.30874 16.8623 6.20119 16.7748 6.10708C16.6873 6.01296 16.5874 5.94573 16.4749 5.89195C16.2374 5.78439 15.9874 5.78439 15.7374 5.89195C15.6249 5.94573 15.5249 6.01296 15.4374 6.10708C15.3499 6.20119 15.2874 6.30874 15.2374 6.42975C15.1874 6.5642 15.1624 6.68522 15.1624 6.81967C15.1624 6.95412 15.1874 7.08856 15.2374 7.20957C15.2874 7.33057 15.3499 7.43814 15.4374 7.53226C15.5249 7.62637 15.6249 7.6936 15.7374 7.74738C15.8624 7.80116 15.9749 7.82805 16.0999 7.82805C16.2249 7.82805 16.3373 7.80116 16.4623 7.74738C16.5748 7.70705 16.6749 7.62637 16.7624 7.53226C16.8499 7.43814 16.9124 7.33057 16.9624 7.20957C17.0124 7.08856 17.0374 6.95412 17.0374 6.81967C17.0499 6.68522 17.0249 6.55075 16.9749 6.42975Z" fill="#0068DF"/>
<path d="M57.8004 55.7182H9.77539C9.08789 55.7182 8.52539 55.1133 8.52539 54.3741V21.7527C8.52539 21.0134 9.08789 20.4086 9.77539 20.4086H57.8004C58.4879 20.4086 59.0504 21.0134 59.0504 21.7527V54.3741C59.0504 55.1133 58.4879 55.7182 57.8004 55.7182Z" fill="white"/>
<path d="M57.787 56.7399H9.78696C8.56196 56.7399 7.57446 55.6781 7.57446 54.3609V21.7666C7.57446 20.4494 8.56196 19.3876 9.78696 19.3876H57.787C59.012 19.3876 59.9995 20.4494 59.9995 21.7666V54.3609C59.9995 55.6647 59.012 56.7399 57.787 56.7399ZM9.78696 21.4172C9.61196 21.4172 9.47446 21.565 9.47446 21.7532V54.3475C9.47446 54.5356 9.61196 54.6835 9.78696 54.6835H57.787C57.962 54.6835 58.0995 54.5356 58.0995 54.3475V21.7532C58.0995 21.565 57.962 21.4172 57.787 21.4172H9.78696Z" fill="#0068DF"/>
<path d="M31.2622 27.1961V43.4867L41.3622 35.3414L31.2622 27.1961Z" fill="white"/>
<path d="M31.2625 44.5082C31.1125 44.5082 30.975 44.4679 30.8375 44.4007C30.5125 44.2259 30.3125 43.8765 30.3125 43.4867V27.1829C30.3125 26.7931 30.5125 26.4437 30.8375 26.2689C31.1625 26.0942 31.5375 26.1345 31.825 26.363L41.925 34.5082C42.1625 34.6964 42.3 35.0055 42.3 35.3281C42.3 35.6507 42.1625 35.9464 41.925 36.148L31.825 44.2931C31.6625 44.441 31.4625 44.5082 31.2625 44.5082ZM32.2125 29.2259V41.4437L39.7875 35.3281L32.2125 29.2259Z" fill="#0068DF"/>
<path d="M52.737 49.9394H42.637C42.112 49.9394 41.687 49.4822 41.687 48.9175C41.687 48.3528 42.112 47.8957 42.637 47.8957H52.737C53.262 47.8957 53.687 48.3528 53.687 48.9175C53.687 49.4822 53.262 49.9394 52.737 49.9394Z" fill="#0068DF"/>
<path d="M38.8379 49.9394H14.8379C14.3129 49.9394 13.8879 49.4822 13.8879 48.9175C13.8879 48.3528 14.3129 47.8957 14.8379 47.8957H38.8379C39.3629 47.8957 39.7879 48.3528 39.7879 48.9175C39.7879 49.4822 39.3629 49.9394 38.8379 49.9394Z" fill="#0068DF"/>
<path d="M38.837 51.9807C38.312 51.9807 37.887 51.5237 37.887 50.9592V46.8866C37.887 46.3221 38.312 45.8651 38.837 45.8651C39.362 45.8651 39.787 46.3221 39.787 46.8866V50.9592C39.787 51.5237 39.362 51.9807 38.837 51.9807Z" fill="#0068DF"/>
</svg>
