<svg viewBox="0 0 60 65" fill="none" xmlns="http://www.w3.org/2000/svg">
<path d="M56.5497 55.7162H3.44971C2.07471 55.7162 0.949707 54.5065 0.949707 53.028V47.5711H59.0497V53.028C59.0497 54.5065 57.9372 55.7162 56.5497 55.7162Z" fill="#B5DAFF"/>
<path d="M55.2747 53.0013H0.949707V47.5711H56.5247V51.6572C56.5247 52.3964 55.9622 53.0013 55.2747 53.0013Z" fill="white"/>
<path d="M56.525 56.738H3.475C1.5625 56.738 0 55.0579 0 53.0014V47.5714C0 47.0069 0.425012 46.5499 0.950012 46.5499H59.05C59.575 46.5499 60 47.0069 60 47.5714V53.0014C60 55.0579 58.4375 56.738 56.525 56.738ZM1.89999 48.5794V52.988C1.89999 53.9288 2.6125 54.6815 3.475 54.6815H56.525C57.4 54.6815 58.1 53.9154 58.1 52.988V48.5794H1.89999Z" fill="#0068DF"/>
<path d="M59.0497 47.5709H0.949707V8.14863C0.949707 6.67013 2.07471 5.46045 3.44971 5.46045H56.5497C57.9247 5.46045 59.0497 6.67013 59.0497 8.14863V47.5709Z" fill="white"/>
<path d="M59.05 48.5783H0.950012C0.425012 48.5783 0 48.1213 0 47.5568V8.16133C0 6.10486 1.5625 4.42474 3.475 4.42474H56.525C58.4375 4.42474 60 6.10486 60 8.16133V47.5568C60 48.1213 59.575 48.5783 59.05 48.5783ZM1.89999 46.5487H58.1125V8.17477C58.1125 7.2339 57.4 6.48121 56.5375 6.48121H3.48751C2.61251 6.48121 1.9125 7.24734 1.9125 8.17477V46.5487H1.89999Z" fill="#0068DF"/>
<path d="M41.3752 55.7157H18.6377V63.8609H41.3752V55.7157Z" fill="#B5DAFF"/>
<path d="M41.3621 64.8827H18.6245C18.0995 64.8827 17.6746 64.4257 17.6746 63.8612V55.716C17.6746 55.1515 18.0995 54.6945 18.6245 54.6945H41.3621C41.8871 54.6945 42.3121 55.1515 42.3121 55.716V63.8612C42.3121 64.4257 41.8871 64.8827 41.3621 64.8827ZM19.5745 62.8397H40.412V56.7241H19.5745V62.8397Z" fill="#0068DF"/>
<path d="M51.4745 64.8842H8.52448C7.99948 64.8842 7.57446 64.4271 7.57446 63.8624C7.57446 63.2977 7.99948 62.8406 8.52448 62.8406H51.4745C51.9995 62.8406 52.4245 63.2977 52.4245 63.8624C52.4245 64.4271 51.9995 64.8842 51.4745 64.8842Z" fill="#0068DF"/>
<path d="M33.7872 5.4601C33.7872 7.70473 32.0872 9.53271 29.9997 9.53271C27.9122 9.53271 26.2122 7.70473 26.2122 5.4601C26.2122 3.21547 27.9122 1.38751 29.9997 1.38751C32.0872 1.38751 33.7872 3.21547 33.7872 5.4601Z" fill="white"/>
<path d="M30 10.5545C27.3875 10.5545 25.2625 8.26953 25.2625 5.46038C25.2625 2.65122 27.3875 0.366272 30 0.366272C32.6125 0.366272 34.7375 2.65122 34.7375 5.46038C34.7375 8.26953 32.6125 10.5545 30 10.5545ZM30 2.4093C28.4375 2.4093 27.1625 3.78026 27.1625 5.46038C27.1625 7.14049 28.4375 8.51147 30 8.51147C31.5625 8.51147 32.8375 7.14049 32.8375 5.46038C32.8375 3.78026 31.5625 2.4093 30 2.4093Z" fill="#0068DF"/>
<path d="M30.9503 5.46103C30.9503 6.02573 30.5253 6.48287 30.0003 6.48287C29.4753 6.48287 29.0503 6.02573 29.0503 5.46103C29.0503 4.89634 29.4753 4.43921 30.0003 4.43921C30.5253 4.43921 30.9503 4.89634 30.9503 5.46103Z" fill="#0068DF"/>
<path d="M36.3123 17.6779C36.3123 21.428 38.5748 24.4656 41.3623 24.4656C44.1498 24.4656 46.4123 21.428 46.4123 17.6779C46.4123 13.9279 44.1498 12.2477 41.3623 12.2477C38.5748 12.2477 36.3123 13.9279 36.3123 17.6779Z" fill="#B5DAFF"/>
<path d="M36.3123 17.6779C36.3123 21.428 38.5748 24.4656 41.3623 24.4656C43.2373 24.4656 43.5373 12.2477 41.3623 12.2477C38.5748 12.2477 36.3123 13.9279 36.3123 17.6779Z" fill="white"/>
<path d="M41.3625 25.4875C38.05 25.4875 35.3625 21.9794 35.3625 17.6783C35.3625 13.7535 37.7125 11.2266 41.3625 11.2266C45.0125 11.2266 47.3625 13.7535 47.3625 17.6783C47.3625 21.9929 44.675 25.4875 41.3625 25.4875ZM41.3625 13.2697C40.125 13.2697 37.2625 13.6998 37.2625 17.6783C37.2625 20.8638 39.1 23.4445 41.3625 23.4445C43.625 23.4445 45.4625 20.8504 45.4625 17.6783C45.475 13.6998 42.6 13.2697 41.3625 13.2697Z" fill="#0068DF"/>
<path d="M48.2377 25.2996L45.1501 24.9367V47.5713H52.7252V30.7029C52.7377 27.934 50.8002 25.6088 48.2377 25.2996Z" fill="#B5DAFF"/>
<path d="M41.3628 24.4799L34.4878 25.2998C31.9253 25.609 29.9878 27.9342 29.9878 30.7031V47.5714H45.1503V24.9369L41.3628 24.4799Z" fill="white"/>
<path d="M52.7378 48.5794H30.0003C29.4753 48.5794 29.0503 48.1224 29.0503 47.5579V30.6895C29.0503 27.3965 31.3378 24.6411 34.3878 24.2782L41.2628 23.4583C41.3378 23.4448 41.4003 23.4448 41.4753 23.4583L48.3503 24.2782C51.3878 24.6411 53.6878 27.3965 53.6878 30.6895V47.5579C53.6878 48.1224 53.2628 48.5794 52.7378 48.5794ZM30.9503 46.5498H51.7878V30.703C51.7878 28.4449 50.2128 26.5631 48.1378 26.3212L41.3628 25.5147L34.5878 26.3212C32.5003 26.5766 30.9378 28.4583 30.9378 30.703V46.5498H30.9503Z" fill="#0068DF"/>
<path d="M35.0503 48.5786C34.5253 48.5786 34.1003 48.1216 34.1003 47.5571V31.2532C34.1003 30.6887 34.5253 30.2317 35.0503 30.2317C35.5753 30.2317 36.0003 30.6887 36.0003 31.2532V47.5571C36.0003 48.1216 35.5753 48.5786 35.0503 48.5786Z" fill="#0068DF"/>
<path d="M47.687 48.5786C47.162 48.5786 46.7371 48.1216 46.7371 47.5571V31.2532C46.7371 30.6887 47.162 30.2317 47.687 30.2317C48.212 30.2317 48.637 30.6887 48.637 31.2532V47.5571C48.637 48.1216 48.212 48.5786 47.687 48.5786Z" fill="#0068DF"/>
<path d="M41.3626 31.6034C41.8873 31.6034 42.3126 31.1459 42.3126 30.5815C42.3126 30.0172 41.8873 29.5597 41.3626 29.5597C40.8379 29.5597 40.4126 30.0172 40.4126 30.5815C40.4126 31.1459 40.8379 31.6034 41.3626 31.6034Z" fill="#0068DF"/>
<path d="M41.3626 35.6895C41.8873 35.6895 42.3126 35.232 42.3126 34.6677C42.3126 34.1033 41.8873 33.6458 41.3626 33.6458C40.8379 33.6458 40.4126 34.1033 40.4126 34.6677C40.4126 35.232 40.8379 35.6895 41.3626 35.6895Z" fill="#0068DF"/>
<path d="M42.3126 38.7406C42.3126 39.3053 41.8876 39.7624 41.3626 39.7624C40.8376 39.7624 40.4126 39.3053 40.4126 38.7406C40.4126 38.1759 40.8376 37.7188 41.3626 37.7188C41.8876 37.7188 42.3126 38.1759 42.3126 38.7406Z" fill="#0068DF"/>
<path d="M41.3626 43.8353C41.8873 43.8353 42.3126 43.3778 42.3126 42.8135C42.3126 42.2491 41.8873 41.7917 41.3626 41.7917C40.8379 41.7917 40.4126 42.2491 40.4126 42.8135C40.4126 43.3778 40.8379 43.8353 41.3626 43.8353Z" fill="#0068DF"/>
<path d="M23.6877 17.6779C23.6877 21.428 21.4252 24.4656 18.6377 24.4656C15.8502 24.4656 13.5876 21.428 13.5876 17.6779C13.5876 13.9279 15.8502 12.2477 18.6377 12.2477C21.4252 12.2477 23.6877 13.9279 23.6877 17.6779Z" fill="white"/>
<path d="M23.6876 17.6779C23.6876 21.428 21.425 24.4656 18.6375 24.4656C16.7625 24.4656 16.4625 12.2477 18.6375 12.2477C21.425 12.2477 23.6876 13.9279 23.6876 17.6779Z" fill="#B5DAFF"/>
<path d="M18.638 25.4875C15.3255 25.4875 12.6379 21.9794 12.6379 17.6783C12.6379 13.7535 14.988 11.2266 18.638 11.2266C22.288 11.2266 24.6379 13.7535 24.6379 17.6783C24.6379 21.9929 21.938 25.4875 18.638 25.4875ZM18.638 13.2697C17.4005 13.2697 14.538 13.6998 14.538 17.6783C14.538 20.8638 16.3755 23.4445 18.638 23.4445C20.9005 23.4445 22.738 20.8504 22.738 17.6783C22.738 13.6998 19.863 13.2697 18.638 13.2697Z" fill="#0068DF"/>
<path d="M11.762 25.2996C9.19947 25.6088 7.26196 27.934 7.26196 30.7029V47.5713H14.837V24.9367L11.762 25.2996Z" fill="white"/>
<path d="M25.5001 25.2998L18.6251 24.4799L14.8376 24.9369V47.5714H30.0001V30.7031C30.0001 27.9342 28.0626 25.609 25.5001 25.2998Z" fill="#B5DAFF"/>
<path d="M24.9502 48.5786C24.4252 48.5786 24.0002 48.1216 24.0002 47.5571V31.2532C24.0002 30.6887 24.4252 30.2317 24.9502 30.2317C25.4752 30.2317 25.9002 30.6887 25.9002 31.2532V47.5571C25.9002 48.1216 25.4752 48.5786 24.9502 48.5786Z" fill="#0068DF"/>
<path d="M12.3123 48.5786C11.7873 48.5786 11.3623 48.1216 11.3623 47.5571V31.2532C11.3623 30.6887 11.7873 30.2317 12.3123 30.2317C12.8373 30.2317 13.2623 30.6887 13.2623 31.2532V47.5571C13.2623 48.1216 12.8373 48.5786 12.3123 48.5786Z" fill="#0068DF"/>
<path d="M29.9998 48.5794H7.26227C6.73727 48.5794 6.31226 48.1224 6.31226 47.5579V30.6895C6.31226 27.3965 8.59978 24.6411 11.6498 24.2782L18.5248 23.4583C18.5998 23.4448 18.6623 23.4448 18.7373 23.4583L25.6122 24.2782C28.6497 24.6411 30.9498 27.3965 30.9498 30.6895V47.5579C30.9498 48.1224 30.5248 48.5794 29.9998 48.5794ZM8.21228 46.5498H29.0497V30.703C29.0497 28.4449 27.4748 26.5631 25.3998 26.3212L18.6373 25.5147L11.8623 26.3212C9.77476 26.5766 8.21228 28.4583 8.21228 30.703V46.5498Z" fill="#0068DF"/>
<path d="M18.638 47.9078C18.113 47.9078 17.688 47.4506 17.688 46.8859V45.528C17.688 44.9633 18.113 44.5062 18.638 44.5062C19.163 44.5062 19.588 44.9633 19.588 45.528V46.8859C19.5755 47.4506 19.1505 47.9078 18.638 47.9078Z" fill="#0068DF"/>
<path d="M18.638 42.4768C18.113 42.4768 17.688 42.0198 17.688 41.4553V38.7403C17.688 38.1758 18.113 37.7188 18.638 37.7188C19.163 37.7188 19.588 38.1758 19.588 38.7403V41.4553C19.5755 42.0198 19.1505 42.4768 18.638 42.4768Z" fill="#0068DF"/>
<path d="M18.638 35.0043C18.113 35.0043 17.688 34.5473 17.688 33.9827V31.2676C17.688 30.7031 18.113 30.2461 18.638 30.2461C19.163 30.2461 19.588 30.7031 19.588 31.2676V33.9827C19.5755 34.5473 19.1505 35.0043 18.638 35.0043Z" fill="#0068DF"/>
<path d="M18.638 28.2156C18.113 28.2156 17.688 27.7586 17.688 27.1941V24.4789C17.688 23.9144 18.113 23.4574 18.638 23.4574C19.163 23.4574 19.588 23.9144 19.588 24.4789V27.1941C19.5755 27.7586 19.1505 28.2156 18.638 28.2156Z" fill="#0068DF"/>
</svg>
