<?xml version="1.0" standalone="no"?>
<!DOCTYPE svg PUBLIC "-//W3C//DTD SVG 20010904//EN"
 "http://www.w3.org/TR/2001/REC-SVG-20010904/DTD/svg10.dtd">
<svg version="1.0" xmlns="http://www.w3.org/2000/svg"
 width="1600.000000pt" height="1600.000000pt" viewBox="0 0 1600.000000 1600.000000"
 preserveAspectRatio="xMidYMid meet">
<metadata>
Created by potrace 1.14, written by Peter Selinger 2001-2017
</metadata>
<g transform="translate(0.000000,1600.000000) scale(0.100000,-0.100000)"
fill="#000000" stroke="none">
<path d="M3827 12633 c-2 -1 -152 -41 -181 -48 -6 -1 -18 -5 -26 -8 -14 -5
-58 -17 -87 -23 -6 -1 -51 -13 -100 -27 -48 -14 -108 -31 -133 -38 -25 -7 -47
-13 -50 -14 -24 -7 -59 -17 -71 -19 -8 -2 -21 -6 -29 -9 -16 -7 -151 -45 -183
-52 -10 -2 -32 -9 -50 -14 -49 -16 -205 -62 -219 -65 -28 -6 -74 -18 -88 -23
-8 -3 -19 -7 -25 -8 -5 -2 -42 -13 -82 -25 -39 -12 -80 -23 -90 -25 -10 -2
-19 -4 -20 -5 -3 -3 -8 -4 -48 -14 -16 -4 -43 -13 -60 -19 -16 -6 -36 -12 -43
-14 -8 -1 -53 -13 -100 -27 -89 -27 -422 -124 -522 -153 -30 -9 -88 -26 -129
-39 -41 -13 -77 -21 -82 -19 -4 3 -9 1 -11 -4 -1 -6 -16 -12 -33 -15 -16 -2
-30 -5 -30 -6 0 -1 -7 -3 -15 -5 -8 -2 -69 -20 -135 -40 -66 -20 -127 -38
-135 -40 -8 -2 -40 -11 -70 -20 -30 -8 -62 -17 -70 -19 -8 -3 -16 -5 -17 -6
-2 -2 -6 -3 -10 -4 -5 -1 -35 -10 -68 -20 -33 -10 -68 -20 -78 -22 -16 -3 -61
-16 -107 -32 -8 -3 -19 -6 -25 -7 -20 -5 -270 -77 -285 -83 -8 -3 -26 -7 -40
-9 -13 -2 -30 -9 -37 -15 -7 -6 -13 -8 -13 -5 0 4 -18 0 -40 -8 -22 -8 -40
-12 -40 -9 0 2 -12 -2 -27 -9 -28 -14 -101 -32 -116 -29 -15 4 12 -35 35 -51
13 -8 32 -23 43 -34 11 -10 41 -33 68 -51 26 -18 47 -37 47 -42 0 -6 5 -10 12
-10 9 0 107 -69 128 -90 3 -3 34 -25 70 -49 36 -25 67 -48 68 -53 2 -4 9 -8
15 -8 7 0 24 -11 39 -25 15 -14 30 -25 34 -25 3 0 20 -11 38 -25 36 -29 36
-29 101 -74 28 -19 52 -37 55 -40 3 -4 12 -10 21 -16 24 -15 140 -96 158 -111
9 -7 45 -34 79 -60 35 -26 67 -56 71 -68 10 -25 -10 -75 -82 -204 -59 -107
-57 -103 -120 -199 -42 -65 -83 -137 -112 -193 -5 -11 -13 -20 -17 -20 -5 0
-8 -5 -8 -11 0 -6 -21 -54 -47 -107 -26 -54 -48 -99 -48 -102 -2 -7 -33 -77
-51 -117 -8 -17 -14 -37 -14 -45 0 -8 -4 -18 -8 -24 -5 -5 -17 -31 -26 -59
-10 -27 -20 -57 -23 -65 -3 -8 -7 -19 -8 -25 -2 -5 -15 -44 -29 -85 -14 -41
-27 -84 -29 -95 -1 -11 -5 -24 -8 -30 -4 -5 -10 -23 -14 -40 -11 -39 -10 -34
-20 -80 -10 -47 -12 -54 -15 -57 -1 -2 -3 -12 -5 -23 -2 -11 -10 -47 -18 -80
-9 -33 -18 -77 -21 -99 -4 -21 -8 -41 -10 -45 -2 -3 -7 -26 -10 -51 -3 -25 -8
-57 -11 -72 -3 -16 -7 -40 -10 -55 -3 -16 -7 -50 -10 -78 -4 -27 -8 -61 -10
-75 -4 -23 -9 -71 -22 -205 -8 -79 -12 -615 -4 -615 3 0 6 -26 7 -58 1 -57 10
-165 19 -212 7 -42 18 -124 19 -147 0 -13 4 -23 8 -23 3 0 4 -9 1 -20 -3 -12
0 -20 6 -20 7 0 10 -4 6 -9 -3 -6 -1 -29 5 -53 13 -53 17 -69 32 -138 13 -62
13 -59 20 -80 3 -8 11 -37 18 -65 7 -27 15 -57 18 -65 3 -8 7 -19 7 -25 1 -5
5 -17 8 -25 3 -8 21 -62 40 -120 19 -58 40 -118 47 -135 7 -16 16 -39 20 -50
4 -11 15 -36 23 -55 8 -19 25 -60 38 -90 32 -78 158 -322 207 -404 23 -37 42
-72 42 -77 0 -5 5 -9 10 -9 6 0 10 -5 10 -12 0 -18 214 -328 232 -336 5 -2 8
-8 8 -14 0 -5 6 -15 13 -22 6 -7 28 -32 47 -56 19 -24 41 -49 48 -56 6 -7 12
-15 12 -18 0 -3 15 -21 33 -40 17 -19 57 -62 87 -96 116 -129 309 -318 419
-410 24 -19 52 -44 64 -55 12 -11 42 -36 67 -55 25 -19 51 -40 58 -47 7 -7 16
-13 20 -13 4 0 23 -14 42 -30 45 -38 44 -38 115 -84 33 -22 70 -49 83 -60 12
-11 22 -16 22 -11 0 4 9 0 20 -10 11 -10 29 -23 40 -29 10 -6 47 -28 80 -48
34 -21 66 -38 71 -38 5 0 9 -4 9 -10 0 -5 4 -10 10 -10 5 0 32 -13 60 -30 27
-16 50 -26 50 -22 0 4 4 2 8 -3 10 -14 339 -175 358 -175 3 0 26 -9 51 -21 89
-41 429 -155 488 -164 11 -2 22 -4 25 -5 3 -1 8 -2 13 -1 4 0 7 -4 7 -10 0 -5
4 -8 9 -5 4 3 23 1 42 -5 19 -5 57 -15 84 -20 28 -6 70 -15 95 -21 25 -5 56
-11 70 -14 14 -2 41 -7 60 -10 19 -4 47 -8 63 -10 15 -2 39 -6 55 -9 15 -3 52
-8 82 -11 30 -3 73 -7 95 -10 273 -28 665 -24 920 10 22 3 63 8 90 12 28 3 59
8 70 11 11 2 34 6 50 8 148 22 446 101 635 169 127 46 127 45 190 74 86 38
104 45 113 44 4 -1 7 3 7 10 0 6 3 9 6 6 5 -6 186 84 264 130 34 20 57 34 110
63 31 18 83 52 90 59 3 3 20 14 39 24 19 11 42 25 50 32 56 45 153 114 161
114 4 0 10 3 12 8 2 4 41 39 88 78 217 182 393 362 569 584 50 63 94 120 99
125 47 58 272 404 295 455 4 8 25 47 47 85 22 39 56 104 77 145 20 41 40 77
45 78 4 2 8 8 8 13 0 10 27 73 78 179 15 30 27 57 27 60 1 3 11 28 24 55 12
28 29 64 37 82 8 17 14 33 14 36 0 3 10 27 22 54 12 26 23 53 23 58 1 6 8 24
15 40 7 17 14 35 16 40 1 6 21 57 43 115 23 58 41 109 41 113 0 5 6 23 14 40
30 66 168 495 246 762 18 61 39 130 47 155 8 25 17 56 19 69 3 14 7 28 10 33
3 4 7 18 10 30 6 28 9 39 17 58 3 8 24 76 47 150 42 139 56 180 70 215 5 11
20 56 35 100 26 79 69 202 85 240 4 11 14 36 20 55 7 19 19 49 26 65 7 17 36
86 64 155 70 167 228 485 284 570 14 22 26 44 26 49 0 5 3 11 8 13 4 2 29 37
56 78 83 126 194 261 290 349 87 80 106 97 132 116 15 11 40 30 55 43 15 12
30 22 34 22 3 0 25 13 48 28 38 26 185 106 197 108 3 0 23 8 45 18 22 10 45
19 50 20 6 1 55 17 110 35 55 18 111 35 125 37 32 6 46 8 95 19 22 4 51 9 65
11 14 1 25 3 25 4 0 1 16 3 35 5 19 1 53 5 75 8 122 19 488 26 658 13 153 -13
181 -15 207 -21 14 -3 45 -7 70 -10 25 -3 56 -8 70 -11 14 -3 39 -7 55 -10 62
-11 271 -67 283 -76 6 -6 12 -8 12 -4 0 4 13 0 30 -9 16 -8 32 -15 35 -14 20
4 235 -92 360 -161 57 -31 228 -144 251 -165 6 -5 33 -28 60 -49 58 -47 278
-267 314 -314 14 -18 33 -43 44 -55 25 -31 98 -134 116 -165 8 -15 17 -29 20
-32 11 -11 59 -88 80 -130 12 -25 25 -47 29 -50 11 -9 157 -321 161 -345 1 -7
6 -23 29 -91 12 -33 21 -69 21 -80 0 -11 4 -24 8 -29 7 -9 22 -63 37 -135 2
-14 9 -47 15 -74 5 -26 7 -52 4 -57 -3 -5 -1 -9 4 -9 4 0 9 -12 10 -27 2 -31
8 -78 11 -78 6 0 13 -177 14 -340 1 -198 -4 -335 -13 -335 -3 0 -6 -12 -6 -27
-3 -58 -21 -176 -34 -218 -5 -16 -12 -41 -14 -55 -9 -42 -36 -144 -45 -165 -5
-11 -21 -54 -36 -95 -32 -85 -89 -207 -138 -295 -56 -100 -119 -200 -128 -203
-5 -2 -9 -10 -9 -17 0 -7 -3 -15 -7 -17 -5 -1 -21 -20 -36 -41 -15 -20 -40
-43 -55 -51 -26 -13 -33 -12 -92 16 -36 17 -68 36 -72 42 -4 6 -8 8 -8 4 0
-15 -451 274 -458 293 -2 5 -10 9 -18 9 -8 0 -14 5 -14 10 0 6 -4 10 -10 10
-9 0 -70 43 -122 85 -10 8 -37 27 -60 42 -24 15 -49 34 -56 41 -8 6 -35 26
-60 44 -26 18 -51 36 -57 40 -5 5 -41 31 -80 58 -38 28 -79 58 -91 68 -11 9
-32 23 -46 30 -13 8 -39 26 -57 41 -17 15 -44 35 -60 44 l-29 17 -2 -127 c-2
-225 -10 -867 -16 -1243 -2 -201 -5 -369 -5 -375 1 -66 1 -106 2 -135 1 -19 1
-39 0 -45 -6 -58 -5 -95 2 -95 4 0 4 -8 -1 -17 -14 -27 -7 -1746 7 -1882 1 -9
8 -11 24 -7 12 4 33 9 47 11 14 2 45 9 70 15 25 6 54 13 65 15 46 11 64 15
135 34 74 19 170 44 388 102 62 17 120 32 130 34 9 3 42 11 72 19 66 18 169
45 190 51 8 2 15 4 15 5 0 1 9 3 20 5 11 2 36 8 55 14 63 19 244 70 285 80 61
15 142 37 225 60 41 12 86 24 100 27 13 3 52 13 85 24 87 26 216 61 244 67 14
2 29 7 35 11 11 6 23 10 56 16 8 1 22 5 30 9 8 3 26 9 40 11 14 3 61 15 105
28 44 14 83 25 88 26 4 1 19 4 35 8 15 3 34 8 42 11 8 3 20 7 25 8 6 2 51 15
100 29 50 15 97 28 105 31 47 12 214 59 335 95 77 22 147 42 155 44 36 9 136
38 150 43 17 7 12 6 70 23 48 14 59 17 88 24 9 3 18 5 20 6 1 2 5 3 10 4 4 2
34 11 67 21 33 10 65 20 70 21 39 11 90 34 93 42 14 44 -107 165 -337 335 -59
43 -114 84 -124 92 -9 8 -19 15 -22 15 -8 0 -400 283 -403 292 -2 4 -9 8 -15
8 -7 0 -26 14 -44 30 -18 17 -37 30 -42 30 -14 0 -36 41 -32 60 3 18 73 173
82 180 3 3 9 12 12 20 4 8 18 33 32 55 14 22 31 50 37 63 6 12 15 22 20 22 4
0 8 5 8 10 0 6 15 35 34 63 61 96 142 248 190 357 16 36 42 93 57 127 16 34
31 75 35 90 4 15 10 33 14 38 6 9 29 71 36 100 2 6 10 30 19 55 9 25 19 52 21
60 2 8 15 53 30 100 14 47 27 94 29 105 1 11 6 28 10 37 4 10 8 29 9 43 0 14
4 25 7 25 3 0 6 6 6 13 0 6 4 26 7 42 4 17 9 41 12 54 3 12 11 51 19 85 7 33
16 81 20 106 3 25 10 68 15 95 10 56 21 132 26 185 1 19 5 60 8 90 22 218 28
577 12 755 -4 50 -8 114 -9 142 -1 29 -4 53 -7 53 -3 0 -6 12 -7 28 -5 57 -17
136 -37 232 -17 78 -72 294 -101 390 -9 30 -18 62 -20 70 -2 8 -4 16 -5 18 -2
1 -4 7 -5 12 -1 6 -4 12 -5 15 -1 3 -3 8 -5 13 -1 4 -4 14 -8 22 -3 8 -11 33
-18 55 -15 51 -108 291 -143 370 -50 111 -175 351 -207 397 -11 14 -19 31 -19
37 0 6 -4 11 -10 11 -5 0 -10 5 -10 11 0 10 -165 258 -180 269 -3 3 -19 23
-35 45 -16 22 -34 45 -39 50 -6 6 -23 26 -38 45 -78 103 -286 328 -418 455
-72 69 -104 98 -170 154 -30 25 -65 56 -78 69 -12 12 -25 22 -28 22 -3 0 -17
11 -32 25 -39 37 -300 225 -311 225 -5 0 -11 4 -13 8 -7 17 -320 203 -400 238
-21 9 -38 20 -38 25 0 5 -9 9 -19 9 -11 0 -23 5 -26 10 -4 6 -11 8 -16 5 -5
-4 -9 -1 -9 4 0 6 -4 11 -10 11 -5 0 -42 16 -82 35 -40 20 -74 36 -75 36 -4 0
-73 28 -108 44 -49 21 -239 88 -252 88 -7 0 -13 4 -13 9 0 5 -6 8 -12 7 -7 -1
-20 0 -28 4 -8 3 -37 12 -65 20 -27 8 -68 20 -90 26 -22 7 -47 14 -55 15 -8 2
-22 6 -30 9 -8 3 -62 16 -120 28 -58 11 -114 23 -125 25 -19 5 -145 26 -230
39 -22 3 -67 8 -100 11 -33 2 -71 7 -85 9 -33 6 -285 18 -380 18 -92 0 -332
-12 -380 -18 -19 -3 -57 -7 -85 -9 -61 -6 -194 -25 -215 -31 -8 -2 -35 -7 -60
-11 -51 -7 -75 -12 -75 -14 0 -1 -11 -3 -25 -5 -14 -2 -54 -10 -90 -19 -36 -9
-72 -18 -80 -21 -8 -2 -33 -8 -55 -13 -22 -6 -68 -19 -102 -30 -34 -11 -64
-17 -67 -14 -3 3 -6 -1 -6 -8 0 -7 -3 -11 -6 -8 -5 5 -44 -7 -249 -82 -27 -10
-77 -31 -110 -46 -33 -15 -62 -28 -65 -29 -3 0 -36 -15 -73 -33 -38 -18 -72
-32 -77 -32 -5 0 -10 -3 -12 -7 -1 -5 -28 -21 -58 -37 -65 -35 -189 -114 -208
-133 -7 -7 -18 -13 -24 -13 -6 0 -18 -8 -27 -18 -9 -10 -32 -28 -51 -40 -19
-11 -47 -32 -62 -44 -15 -13 -37 -31 -50 -41 -86 -68 -95 -76 -198 -165 -68
-59 -395 -384 -465 -462 -22 -25 -76 -88 -120 -140 -44 -52 -82 -97 -85 -100
-3 -3 -17 -21 -30 -40 -13 -19 -30 -39 -37 -43 -7 -4 -13 -14 -13 -22 0 -7 -4
-15 -9 -17 -28 -11 -253 -363 -321 -503 -46 -95 -110 -235 -110 -240 0 -2 -5
-16 -12 -32 -6 -15 -12 -30 -13 -33 -4 -12 -26 -67 -34 -85 -5 -11 -17 -42
-27 -70 -10 -27 -22 -56 -27 -62 -5 -7 -7 -13 -4 -13 3 0 -1 -17 -10 -37 -8
-21 -20 -49 -26 -63 -6 -14 -11 -27 -12 -30 -4 -18 -29 -87 -34 -95 -3 -5 -6
-14 -7 -20 -2 -5 -23 -68 -49 -140 -48 -135 -115 -333 -119 -350 -4 -16 -97
-309 -103 -325 -8 -19 -7 -17 -17 -60 -5 -19 -13 -41 -18 -47 -6 -7 -8 -13 -5
-13 3 0 -5 -33 -19 -72 -13 -40 -24 -75 -24 -78 0 -6 -19 -68 -27 -90 -9 -21
-9 -21 -17 -55 -4 -16 -11 -39 -16 -50 -4 -11 -38 -112 -75 -225 -37 -113 -73
-218 -80 -235 -7 -16 -20 -50 -28 -75 -9 -25 -22 -58 -28 -75 -7 -16 -13 -32
-14 -35 -3 -14 -48 -129 -60 -157 -8 -17 -15 -33 -15 -36 0 -3 -10 -27 -22
-54 -11 -26 -22 -52 -24 -58 -3 -16 -89 -203 -144 -314 -27 -55 -49 -104 -49
-107 0 -4 -3 -10 -8 -13 -5 -3 -17 -22 -27 -41 -28 -56 -43 -81 -55 -93 -6 -6
-11 -19 -11 -29 0 -10 -3 -18 -8 -18 -4 0 -18 -20 -32 -45 -14 -25 -28 -45
-32 -45 -5 0 -8 -5 -8 -10 0 -10 -124 -188 -139 -200 -3 -3 -20 -23 -36 -45
-47 -63 -284 -295 -301 -295 -4 0 -37 -27 -59 -47 -8 -7 -16 -13 -19 -13 -3 0
-32 -17 -65 -37 -61 -39 -122 -76 -131 -78 -3 -1 -18 -7 -33 -13 -16 -7 -33
-12 -38 -12 -5 0 -9 -4 -9 -10 0 -5 -4 -10 -9 -10 -5 0 -22 -5 -38 -12 -15 -6
-31 -12 -35 -13 -5 -2 -10 -4 -13 -5 -3 -1 -8 -3 -12 -4 -5 -1 -12 -4 -18 -7
-8 -5 -25 -10 -75 -24 -3 0 -32 -9 -65 -19 -71 -21 -64 -20 -222 -50 -11 -3
-43 -8 -70 -12 -26 -3 -56 -8 -66 -10 -158 -28 -567 -21 -747 13 -14 2 -41 7
-60 10 -57 8 -200 42 -275 65 -153 46 -192 60 -282 99 -24 11 -45 19 -48 19
-7 0 -179 83 -185 89 -3 3 -27 17 -55 31 -71 35 -280 176 -372 251 -117 95
-247 221 -334 324 -19 22 -36 42 -39 45 -32 30 -224 312 -237 348 -4 10 -9 19
-12 22 -14 12 -146 298 -155 335 -1 6 -13 42 -25 80 -12 39 -25 81 -27 94 -3
13 -9 32 -15 43 -5 10 -8 18 -5 18 2 0 0 17 -5 38 -16 63 -18 75 -24 112 -3
20 -8 47 -11 60 -2 14 -7 45 -10 70 -2 25 -7 56 -9 70 -28 166 -23 560 10 770
4 25 8 60 8 78 1 17 4 32 7 32 3 0 7 13 8 30 3 37 54 236 81 312 10 31 17 59
14 62 -4 3 -1 6 5 6 7 0 12 9 12 19 0 11 5 23 10 26 6 4 8 10 5 15 -3 5 0 14
7 22 7 7 14 19 16 26 6 32 93 191 134 247 44 59 112 145 131 166 13 15 37 45
53 68 16 22 34 41 39 41 6 0 57 -34 113 -75 56 -41 104 -75 107 -75 3 0 13 -7
22 -15 20 -16 218 -161 253 -185 12 -8 60 -43 107 -77 46 -35 88 -63 94 -63 5
0 9 -3 9 -8 0 -4 18 -18 40 -32 22 -14 40 -28 40 -32 0 -5 7 -8 15 -8 8 0 15
-3 15 -8 0 -4 18 -18 40 -32 22 -14 40 -28 40 -32 0 -5 6 -8 14 -8 8 0 16 -3
18 -7 2 -5 26 -24 53 -42 28 -19 52 -37 55 -40 3 -4 28 -22 55 -41 28 -19 56
-40 63 -47 7 -7 16 -13 20 -13 4 0 19 -10 34 -23 14 -12 36 -29 48 -37 12 -8
48 -34 80 -57 55 -40 58 -41 62 -20 2 12 3 623 2 1357 -2 1486 -9 2054 -29
2275 -8 91 -17 179 -20 190 -1 6 -5 28 -10 50 -12 57 -32 85 -62 83 -13 -2
-25 -3 -26 -5z"/>
</g>
</svg>
